<svg xmlns="http://www.w3.org/2000/svg" viewBox="0 0 2500 784.2" style="enable-background:new 0 0 2500 784.2" xml:space="preserve"><path d="M1751.3 60.2s-46.9 18.7-101.4 78.7-86.2 127.6-62.8 145.6c9 6.8 29.8 8.1 67.6-26 34.8-30.3 62.2-68.2 79.9-110.8 24.5-59.4 16.7-86.8 16.7-87.5m298.3 108.1c-60.6-31.1-104.8-69.1-150.9-92.6-43.9-22.6-72.3-32-107.9-27.2-5 .9-9.8 2.1-14.6 3.7 0 0 18.3 62.5-54.5 167.4C1648 326 1581.1 325.3 1562 296.1c-19.9-30.8 5.8-93.7 48.8-149.7 45-58.5 124-107.1 124-107.1s-25.2-15.4-87.1 19.7c-60.4 34.1-164.2 115.3-260.7 252.4s-115.5 212.5-129.3 271.9-1.3 123 64.6 123 142.5-100.4 164.1-135.3c40.2-65 66.4-164.8 11.7-151.1-26.9 6.7-48.8 36.6-62.6 65.3-8.7 18.5-15.3 37.8-19.8 57.7-19.1 7.9-37.1 18.3-53.4 31.1-18.1 13.4-35.1 28.4-50.6 44.7 0 0 .2-47.5 38.1-124.3 37.8-76.8 107.3-111.9 146.6-115.2 35.4-2.8 81.6 27.2 42.5 138.2s-154.4 245.9-275.6 247.5c-111.8 1.5-185-141.2-29.3-390.2 172.3-275.2 374.4-359.6 440-369s86.9 19.5 86.9 19.5C1800.4 9 1843 2 1885.6 4.6c80.1 5.4 142.1 62.1 223.8 101.9-21.2 20.5-41.4 41.8-59.8 61.8m359.9-92.6c-55.5 35.6-132.3 67.9-206.1 61-18.7 19.3-38.7 41.7-58.7 66 128 25.3 240.1-54 299.8-121.5 21.7-24.3 40.4-51.1 55.6-79.9-27.2 28.2-57.6 53.2-90.6 74.4m-170.4 360.6c1-1.7 1.8-3.5 2.4-5.3-.8-6-5.7-10.7-11.7-11.2-12.2-.6-28.8 1.7-72.4 50-36.2 39.9-67.3 84-92.7 131.5-25 45.6-35.1 79.6-20.7 88.4 4.7 2.4 10.1 3 15.1 1.5 9.7-2.3 20.7-11.4 37.5-30.8 7.8-9.1 16.5-22 26.9-36.3 28.7-39.3 101.2-162.8 115.6-187.8M1786 488.8c7.3-19 16.5-56.4-2.7-71-20.7-15.6-73.4 21-73.7 58.4-.4 38.4 37.1 55.7 46.1 58.2 5.1 1.4 6.9 1.2 9.4-2.9 8-13.8 15-28.1 20.9-42.7m-39.9 69.8c-13.1-6-25.3-13.8-36.3-23.1-11-9.2-20.2-20.4-27.2-33-.7-1.2-1.5-.3-2.3.8-.8 1.1-4.1 4.1-32.2 45.3s-71.3 126.6-32.2 141.2c25 9.3 66.7-34.5 89.4-63.6 15.5-20.3 29.5-41.6 42-63.9 1.3-2.7.1-3.2-1.2-3.7m443.6 98.6c-10.6 17-22.7 49.6 12.2 29.3 42.7-24.7 103.6-117 103.6-117h27.6c-25.1 38.6-53.1 75.3-83.6 109.7-43.3 48-96.1 91.5-133.3 87.2-43.4-5.1-29.8-62.1-29.8-62.1s-62.1 66.2-105.1 61.4c-58.1-6.4-40.4-78.2-40.4-78.2s-65.7 80.6-110.4 78.1c-70.2-4.1-52.5-89.4-33-149.5 10.4-32.1 20.1-57.4 20.1-57.4s-7 1.8-21.9 4.1c-7.8 1.1-22 1.9-22 1.9s-29.2 51.5-52.6 82.5c-23.4 31-122.7 137.7-181.2 116.4-54.1-19.8-36.2-102.5-4.7-168.3 45.9-95.9 175.1-233.6 249.6-215.4 77.2 18.7 1.7 159.7 1.7 159.7s0 .5.8.9c1.5.6 5.6 1 14.9-.8 9.6-2 19.1-4.8 28.2-8.4 0 0 77.6-162.6 163.4-268.9 85.8-106.4 256.8-289.5 324-245.2 16.3 10.9 8.9 48.4-13.2 93.9-10 3.2-20.1 5.9-30.3 8.1 14.8-26.9 24.6-49.5 27.5-65.3 10.1-55-118.2 61-209.9 185.5-55.2 75.1-104.3 154.5-146.7 237.5 16.6-10.1 32.4-21.4 47.3-33.8 40.9-33.9 79.8-70.2 116.4-108.7 35.3-36.1 68.4-74.3 99.1-114.4 9.8-.5 19.5-1.5 29.1-3-33.5 45.5-70 88.6-109.3 129.2-36.6 37-76.2 76.8-110.6 105.7-30.7 26.1-63.1 50.2-97 72.1 0 0-80.2 161.7-36.6 172.1 25.6 6.2 76.3-71.8 76.3-71.8S2026 523.5 2065.8 478c54.3-61.8 101.1-97.5 147.9-98.2 27.2-.5 43.3 28.5 43.3 28.5l12.8-19.8h78.8s-147.3 249.9-159 268.7m219.9-581.5c-55.5 35.6-132.3 67.9-206.1 61-18.7 19.3-38.7 41.7-58.7 66 128 25.3 240.1-54 299.8-121.5 21.8-24.3 40.4-51.1 55.6-79.9-27.2 28.2-57.6 53.2-90.6 74.4M1302.1 198.2h-75l-42.4 68.5h75l42.4-68.5zm-355 237.2c31.9-43.7 119.9-197 119.9-197-.8-6-5.6-10.7-11.7-11.2-12.2-.6-32.5 3.5-72.9 54.1s-71.7 90.7-94.5 132.5c-25 45.6-36 77.8-21.6 86.6 4.7 2.3 10 2.9 15.1 1.5 9.3-2.4 21.6-11.7 38.4-31.1 7.8-9 16.8-21.1 27.3-35.4M544.7 228.1c-20.7-15.6-73.4 21-73.7 58.4-.3 38.4 47.4 50.2 53.6 50.4 1.8.2 3.6-.2 5.2-1.1 1.1-.6 2-1.6 2.5-2.8 5.6-11 10.7-22.3 15.1-33.9 7.3-19 16.6-56.3-2.7-71m-31.3 132.2c-14.3-4.5-28-10.7-40.6-18.7-12.3-8-22.3-19.1-29-32.1-.7-1.2-1.5-.3-2.3.8s-5 6.4-33.2 47.8c-28.2 41.4-70 126-30.8 140.5 25 9.5 67.1-34.8 90-63.7 17.1-22.7 32.9-46.4 47.4-71 .9-2.5 0-3-1.4-3.5m612.4 25.4h27.5S1015.7 585 938 575.7c-43.4-5.1-30.5-58.6-30.5-58.6s-61 71.4-117 56.9c-50.8-13-18-97.5-18-97.5-5.8 2.3-115.7 126.2-193 96.5-80.8-31.2-38.9-135-23.5-166.2 13-26.3 27.5-51.9 27.5-51.9s-12.4 3.5-20.3 5.3c-7.9 1.8-19.4 4.1-19.4 4.1s-38.2 62.1-61.6 93.2-122.8 137.4-181.3 116.2c-58.5-21.2-44-103.1-11.1-168.1 53.3-105.5 179.9-235.1 256.1-215.4 77 19.6 13.3 144.5 13.3 144.5s15.3 2 52-23c52.8-36.1 122.6-133 198.1-121.6 35.6 5.4 68.8 41.7 23.4 110.8-14.5 22.2-38.7 42-57.3 22.4-11.6-12.2-1.5-34.4 10.7-49.6 9.6-12.6 24.8-19.6 40.6-18.6 0 0 12.5-28.5-19.3-28-25.7.5-90.7 60.4-127.4 120.8-33.7 55.5-84.7 150.1-33.5 170.7 46.9 18.9 136.3-87.1 177.7-142.7S959.9 194.4 1039 189.4c27.2-1.8 43.4 23 43.4 23l9.1-14.5h79.1s-149 248.6-160.6 267.4c-9.1 14.7-21.3 47.8 12.2 29.3s103.7-108.8 103.7-108.8m-43 398.3c-58.2-40.3-128-60.7-198.7-58-38.9 1.1-74.9 20.6-97 52.6-30.2-52.6-89.8-84.9-182-84.2-149 1.7-296.7 70.4-413.8 70.3C79.2 764.8-2.6 694.3.1 569 5 349.3 190.7 151.4 329.3 62.3 409.2 11.2 476-4 519.7.9c31.9 3.5 70.2 40.4 46 94.6-35.5 79.3-84.6 72.8-82.8 34.9 1-24.7 17.4-40.2 29.8-48.8 7.8-5.4 21.7-7 28.9-7.1 7-5.9 12.2-49.3-44.7-35.1s-126 70.4-191.6 142.8-167.7 209.4-193 353.3c-11.8 66.7-4.1 188.3 154.1 187 134.1-1.1 331.8-89.4 513.5-87.6 70.5.7 131.9 19.7 179.7 49.2 47 28.9 103.3 71.2 123.3 100.1" style="fill:#e61d2b"/></svg>