<svg xmlns="http://www.w3.org/2000/svg" viewBox="0 0 2500 589.1" style="enable-background:new 0 0 2500 589.1" xml:space="preserve"><path style="fill:none" d="M0 0h2500v589.1H0z"/><path d="M1450.4 520.7c0 4.7 1.5 7.5 4.2 7.5 2.2-.2 4.2-1.2 6-2.5L2239.8 20c13.2-9.2 28.9-13.9 45-13.5H2456c26.2 0 44 17.5 44 43.7v327c0 39.5-8.7 62.5-43.7 83.5l-207.7 125c-2.1 1.4-4.5 2.3-7 2.5-2.5 0-5-2-5-9.2V197.5c0-4.5-1.2-7.5-4.2-7.5-2.2.3-4.3 1.1-6 2.5l-569.4 370c-13 8.7-28.2 13.5-43.7 13.2h-377.5c-26.5 0-44-17.5-44-44V60.5c0-3.5-1.5-6.7-4.5-6.7-2.2.3-4.3 1.1-6 2.5L805.4 281.7c-3.7 2.5-4.7 4.2-4.7 6 0 1.5.7 3 3.2 5.7l268.5 268.2c3.5 3.5 6 6.2 6 9.2 0 2.5-4 4.5-8.7 4.5H827.2c-19 0-33.7-2.7-44-13L620.4 400c-1.2-1.5-3.1-2.4-5-2.5-1.8.1-3.5.6-5 1.5l-272 163.5c-16.5 10-27.7 12.7-44 12.7H44.2C17.5 575.4 0 557.7 0 531.4V210.7c0-39.7 8.7-62.5 44-83.5L253 1.7c1.6-1.1 3.5-1.7 5.5-1.7 3.2 0 5 3.2 5 10.5V440c0 4.5 1 6.5 4.2 6.5 2.2-.2 4.2-1.2 6.2-2.5l706-424.8c13.5-9.2 30-13.7 46.5-13h380c26.2 0 44 17.5 44 43.7l-.2 470.7h.2z" style="fill:#131e29"/></svg>